HIERARCHY
ROOT root
{
	OFFSET 0.000000 0.000000 0.000000
	CHANNELS 6 Xposition Yposition Zposition Zrotation Yrotation Xrotation
	JOINT lhip
	{
		OFFSET 0.058581 -0.082280 -0.017664
		CHANNELS 3 Zrotation Yrotation Xrotation
		JOINT lknee
		{
			OFFSET 0.043451 -0.386469 0.008037
			CHANNELS 3 Zrotation Yrotation Xrotation
			JOINT lankle
			{
				OFFSET -0.014790 -0.426874 -0.037428
				CHANNELS 3 Zrotation Yrotation Xrotation
				JOINT ltoe
				{
					OFFSET 0.041054 -0.060286 0.122042
					CHANNELS 3 Zrotation Yrotation Xrotation
					End Site
					{
						OFFSET 0.000000 0.000000 0.000000
					}
				}
			}
		}
	}
	JOINT rhip
	{
		OFFSET -0.060310 -0.090513 -0.013543
		CHANNELS 3 Zrotation Yrotation Xrotation
		JOINT rknee
		{
			OFFSET -0.043257 -0.383688 -0.004843
			CHANNELS 3 Zrotation Yrotation Xrotation
			JOINT rankle
			{
				OFFSET 0.019056 -0.420046 -0.034562
				CHANNELS 3 Zrotation Yrotation Xrotation
				JOINT rtoe
				{
					OFFSET -0.034840 -0.062106 0.130323
					CHANNELS 3 Zrotation Yrotation Xrotation
					End Site
					{
						OFFSET 0.000000 0.000000 0.000000
					}
				}
			}
		}
	}
	JOINT lowerback
	{
		OFFSET 0.004439 0.124404 -0.038385
		CHANNELS 3 Zrotation Yrotation Xrotation
		JOINT upperback
		{
			OFFSET 0.004488 0.137956 0.026820
			CHANNELS 3 Zrotation Yrotation Xrotation
			JOINT chest
			{
				OFFSET -0.002265 0.056032 0.002855
				CHANNELS 3 Zrotation Yrotation Xrotation
				JOINT lowerneck
				{
					OFFSET -0.013390 0.211636 -0.033468
					CHANNELS 3 Zrotation Yrotation Xrotation
					JOINT upperneck
					{
						OFFSET 0.010113 0.088937 0.050410
						CHANNELS 3 Zrotation Yrotation Xrotation
						End Site
						{
							OFFSET 0.000000 0.000000 0.000000
						}
					}
				}
				JOINT lclavicle
				{
					OFFSET 0.071702 0.114000 -0.018898
					CHANNELS 3 Zrotation Yrotation Xrotation
					JOINT lshoulder
					{
						OFFSET 0.122921 0.045205 -0.019046
						CHANNELS 3 Zrotation Yrotation Xrotation
						JOINT lelbow
						{
							OFFSET 0.255332 -0.015649 -0.022946
							CHANNELS 3 Zrotation Yrotation Xrotation
							JOINT lwrist
							{
								OFFSET 0.265709 0.012698 -0.007375
								CHANNELS 3 Zrotation Yrotation Xrotation
								End Site
								{
									OFFSET 0.000000 0.000000 0.000000
								}
							}
						}
					}
				}
				JOINT rclavicle
				{
					OFFSET -0.082954 0.112472 -0.023707
					CHANNELS 3 Zrotation Yrotation Xrotation
					JOINT rshoulder
					{
						OFFSET -0.113228 0.046853 -0.008472
						CHANNELS 3 Zrotation Yrotation Xrotation
						JOINT relbow
						{
							OFFSET -0.260127 -0.014369 -0.031269
							CHANNELS 3 Zrotation Yrotation Xrotation
							JOINT rwrist
							{
								OFFSET -0.269108 0.006794 -0.006027
								CHANNELS 3 Zrotation Yrotation Xrotation
								End Site
								{
									OFFSET 0.000000 0.000000 0.000000
								}
							}
						}
					}
				}
			}
		}
	}
}
MOTION
Frames: 14
Frame Time: 0.033333
1.435328 0.294716 0.991306 -93.743525 -1.453547 91.963786 0.294833 -7.746685 -19.172215 -2.984259 -1.042082 12.409657 5.988755 12.812741 4.217522 0.000000 -0.000000 0.000000 -2.875204 -2.763581 5.923897 -3.293818 3.255130 45.910342 7.039897 -9.357005 14.857707 0.000000 -0.000000 0.000000 -4.394895 9.388596 -0.211505 0.136544 3.411820 3.906157 -1.448998 4.013397 3.600445 1.840277 -11.182477 2.147943 5.262529 -8.735734 6.566546 -16.530696 14.351409 2.013410 -46.590594 5.686927 16.099972 -129.414501 -56.693698 166.241901 23.031211 -16.749916 2.674060 13.772444 -6.204309 -3.724195 64.229327 -5.789043 21.198225 133.104116 70.191202 161.330584 -26.316499 17.483241 -3.694313 
1.362043 0.290193 0.967170 -92.253097 -2.065824 90.630238 -1.920216 -7.992526 -16.769226 -3.971582 -1.381448 21.065039 10.886620 15.875425 -8.960908 0.000000 -0.000000 0.000000 -3.500170 -2.035402 2.850802 -3.299725 2.108456 57.432023 7.218982 -10.779472 10.115554 0.000000 -0.000000 0.000000 -5.047151 7.448358 2.140531 0.210698 2.100374 2.159236 -1.615711 3.142524 4.355647 2.369610 -10.242205 1.038844 4.383666 -7.566333 7.335217 -18.262068 13.040324 1.147056 -46.743328 3.381217 17.073101 -128.528742 -58.001480 165.579349 23.605765 -16.934628 2.577780 15.348272 -7.497061 -4.373359 61.101058 -9.570008 21.376446 125.894065 72.372962 155.279881 -28.085199 16.875463 -2.234845 
1.292892 0.288236 0.942827 -90.827144 -2.659085 89.640825 -3.996569 -7.062387 -14.167879 -5.205830 -2.921753 27.929137 13.649464 18.910782 -17.959962 0.000000 -0.000000 0.000000 -4.250003 -1.563716 -2.562696 -2.789237 1.153869 68.491474 7.083924 -12.796499 5.653367 0.000000 -0.000000 0.000000 -5.837607 5.547153 4.395795 0.242454 0.999698 0.884086 -1.819645 1.727420 5.803222 3.425528 -8.875110 -1.493092 3.726057 -6.727623 8.142290 -21.102163 10.446293 -0.062672 -46.425852 -0.148833 17.615712 -126.846134 -60.380284 163.215519 24.216915 -17.193539 3.656621 17.872660 -8.871241 -5.638298 58.179446 -13.593354 21.090809 117.317979 75.703770 146.622154 -28.897244 16.205792 0.081917 
1.212193 0.289564 0.928718 -89.746234 -2.670083 88.873370 -4.642826 -5.479478 -9.435982 -6.806952 -4.772253 32.053330 13.161308 20.802515 -23.315199 0.000000 -0.000000 0.000000 -4.258599 -0.599420 -12.163915 -2.417840 -0.298463 78.140748 6.147827 -15.291228 0.002224 0.000000 -0.000000 0.000000 -6.187795 2.956399 7.837054 0.306403 0.008815 -0.415739 -1.985110 -0.704714 6.421435 3.856309 -6.990232 -3.563084 3.383989 -5.013978 9.138685 -23.898720 7.197611 -0.468798 -46.824301 -5.463078 17.592516 -125.321683 -63.669711 161.263921 24.930955 -17.210981 5.300304 19.964755 -10.372945 -6.025963 55.069976 -18.243158 20.078575 108.268698 78.637650 137.113724 -28.857039 15.428997 1.287630 
1.164677 0.290592 0.930972 -88.924204 -1.761111 89.068274 -4.035424 -3.955242 -6.210711 -7.059822 -7.175537 32.450036 11.289304 20.503595 -24.592816 0.000000 -0.000000 0.000000 -3.307359 -0.381130 -18.491542 -3.195220 -1.465122 79.738990 6.011263 -15.548987 -3.199090 0.000000 -0.000000 0.000000 -5.219564 0.641140 8.872840 0.385219 -0.757033 -0.648126 -2.024436 -2.144116 6.327704 2.946765 -6.239368 -3.631176 3.425973 -3.353110 8.520082 -24.207174 5.932628 -0.467173 -48.252351 -8.111224 17.332374 -126.548049 -64.643940 162.380750 25.595423 -17.381832 5.429713 19.289913 -11.438926 -6.051769 53.616700 -20.965204 19.048219 107.800029 77.673665 135.836022 -28.571119 15.287422 -0.609684 
1.099742 0.293103 0.944444 -87.630560 -0.082526 89.927089 -2.482523 -1.928712 -0.956250 -6.319517 -11.022897 29.644410 8.450683 19.318077 -23.046323 0.000000 -0.000000 0.000000 -1.945265 0.162210 -25.753473 -4.053756 -3.947187 75.874955 6.195824 -15.121486 -6.379096 0.000000 -0.000000 0.000000 -3.601629 -2.906579 9.018506 0.723663 -1.844164 -0.585015 -1.819773 -3.701872 6.176476 1.724027 -5.080606 -3.322305 3.134844 -1.155467 7.279928 -23.717070 4.797422 -0.528574 -50.385276 -10.943687 17.533154 -129.862186 -65.075574 165.348660 26.017597 -17.109397 5.460481 17.904477 -13.001433 -6.039550 51.181345 -23.960446 18.358381 112.097087 75.237762 139.345627 -28.265771 15.120006 -2.943605 
1.032313 0.297383 0.966129 -86.425011 1.471019 91.656579 -0.023705 -0.657563 3.696394 -5.453115 -13.546877 24.984907 5.030782 17.409774 -17.012252 0.000000 -0.000000 0.000000 -1.340952 1.264780 -31.097093 -4.077587 -7.718288 65.777294 5.991292 -14.741479 -7.193313 0.000000 -0.000000 0.000000 -2.218023 -6.314245 7.682725 1.375593 -3.071079 0.107693 -1.364860 -5.218936 5.558850 0.309811 -3.444452 -2.633311 2.870241 1.211805 5.519609 -22.969919 4.788876 -0.559932 -51.535086 -12.628555 17.880844 -133.038990 -64.528553 168.420044 25.999776 -16.820156 5.481827 16.413150 -14.513131 -5.282557 49.190711 -25.114252 17.814779 114.018765 73.067979 141.635966 -28.083859 15.360448 -4.190840 
0.963609 0.301688 0.991073 -85.702646 2.583351 94.168756 2.392158 0.456261 6.408349 -4.501409 -13.857466 20.605174 1.601270 15.454653 -6.750071 0.000000 -0.000000 0.000000 -1.184178 2.330778 -34.280085 -3.014654 -11.325625 50.492640 5.703613 -14.520801 -5.299523 0.000000 -0.000000 0.000000 -1.075072 -9.022932 5.365084 2.066458 -4.207783 0.879616 -0.871239 -6.357379 4.668334 -0.937083 -2.026164 -2.080441 2.770313 3.440882 3.771458 -21.838235 5.852542 -0.140738 -52.209614 -13.627259 18.337013 -135.054240 -63.436957 170.997587 25.508419 -16.979070 4.990019 15.173903 -16.334575 -4.084247 47.951998 -24.793842 17.427901 114.514399 71.682416 142.964560 -27.846501 15.815181 -4.878037 
0.892565 0.304913 1.012235 -85.594358 3.330585 96.518290 4.138320 1.719364 7.826621 -3.550280 -11.967232 18.048323 -0.863939 13.853643 5.446024 0.000000 -0.000000 0.000000 -0.309117 2.724009 -34.648605 -0.541139 -11.610665 32.271711 5.260889 -12.661827 -0.790342 0.000000 -0.000000 0.000000 0.330662 -10.478288 2.360535 2.399028 -5.310876 2.239884 -0.517524 -7.189202 3.801021 -2.618070 -1.436693 -1.451825 3.055619 5.548719 1.708498 -20.322850 7.016356 0.417265 -52.940202 -13.549903 18.284648 -135.880734 -61.790989 172.237232 24.886175 -16.778635 4.222780 13.325597 -17.677709 -2.211080 48.635463 -23.876288 16.407109 115.507824 70.839875 144.536789 -27.200501 15.845059 -5.796397 
0.799201 0.308520 1.025120 -86.703315 3.708708 97.730122 4.734701 2.569528 9.192686 -2.995132 -8.417158 20.208140 -2.169520 12.822134 16.970149 0.000000 -0.000000 0.000000 0.987189 2.878089 -31.754972 2.325753 -9.161705 13.963807 5.957089 -9.859499 8.791642 0.000000 -0.000000 0.000000 1.914192 -10.628778 -1.022508 2.047661 -5.900002 4.649814 -0.678345 -7.195160 2.992934 -4.617055 -1.985498 -0.087659 3.648464 7.721405 -0.511913 -18.735461 7.934069 1.530531 -53.319535 -12.445109 17.756796 -135.973697 -60.207945 172.967203 23.982993 -17.566359 4.092328 11.225218 -18.194333 0.154714 51.194860 -23.380429 14.804730 118.465054 70.612968 147.634118 -25.628036 16.137692 -6.825397 
0.723433 0.313271 1.022146 -88.514741 3.799551 97.282101 3.742937 1.634058 9.381265 -3.444188 -7.442610 27.479443 -1.956830 13.407231 18.789814 0.000000 -0.000000 0.000000 2.165764 2.949667 -29.399747 3.383566 -8.308126 10.444148 6.041178 -9.798084 11.516914 0.000000 -0.000000 0.000000 2.606689 -9.637417 -2.243180 1.715135 -5.449614 5.545479 -1.179214 -6.634944 3.271862 -5.164877 -2.317084 0.360985 3.228784 8.093396 -0.418145 -18.576111 8.938520 1.527155 -53.221273 -10.671535 17.595588 -135.100046 -59.355351 171.895715 23.440856 -17.826412 4.339657 11.284374 -18.144806 0.049187 51.954021 -23.396338 14.717712 120.948373 70.193384 149.555732 -25.300747 16.037967 -7.213091 
0.648389 0.319086 1.008808 -90.851901 3.884170 95.788142 2.547826 0.258061 8.942369 -5.417846 -6.276476 38.064472 -1.480184 14.195110 14.762614 0.000000 -0.000000 0.000000 3.381424 4.113089 -26.736248 3.286846 -7.713930 15.070118 5.367703 -9.646858 8.899351 0.000000 -0.000000 0.000000 2.526036 -8.204635 -1.651577 1.884535 -4.219007 5.343233 -1.569931 -5.774543 3.872240 -4.489932 -1.929060 0.068273 1.804726 7.038730 1.478220 -19.269893 10.465623 0.965114 -53.236169 -8.031112 17.856588 -133.397261 -59.540123 170.294094 22.896897 -18.041875 5.040540 12.885042 -17.734594 -1.368557 51.002351 -22.509002 15.744057 121.171961 69.945413 149.696474 -25.822146 15.823025 -7.440133 
0.574949 0.325367 0.986902 -93.487630 4.166555 93.763026 2.665030 0.527180 7.705162 -6.279322 -2.985643 49.115893 -2.284838 15.093385 10.691881 0.000000 -0.000000 0.000000 5.184767 6.012537 -23.939190 2.746190 -5.517336 24.467429 1.473370 -8.137430 -2.954397 0.000000 -0.000000 0.000000 2.248540 -6.791650 0.164621 2.242202 -2.385607 4.872601 -1.847589 -4.552524 4.352914 -2.912594 -0.493670 -1.183782 0.086341 4.595686 4.223246 -20.312835 12.026257 -0.073629 -53.150047 -4.474697 17.874035 -130.929500 -60.585341 168.347325 22.529620 -17.687929 5.119919 15.497400 -16.177679 -2.852739 49.834259 -20.120734 16.442975 117.643943 70.277148 146.599574 -26.907292 15.687913 -8.007818 
0.506379 0.331027 0.963333 -95.589625 4.421775 91.983493 3.365826 0.797584 4.421893 -6.096220 0.134708 60.296063 -2.112300 15.553545 5.873135 0.000000 -0.000000 0.000000 7.026678 6.494390 -21.418437 2.222686 -3.562735 33.506210 -1.742736 -9.294033 -13.607934 0.000000 -0.000000 0.000000 2.062238 -5.071593 2.528591 2.572765 -0.673729 4.664718 -2.014994 -3.181523 4.748600 -1.260067 0.267192 -3.640107 -1.500620 2.269638 6.688953 -22.353606 13.020242 -0.934152 -52.344788 -1.192150 17.282255 -126.685956 -63.119077 164.320133 21.986311 -16.743588 5.768876 19.100704 -13.311517 -4.496268 49.013518 -16.378190 17.462728 112.331686 72.074856 141.387980 -27.878902 15.294739 -7.191043 
